<svg width="64" height="64" viewBox="0 0 64 64" xmlns="http://www.w3.org/2000/svg">
  <defs>
    <radialGradient id="tile" cx="34%" cy="28%" r="95%">
      <stop offset="0%" stop-color="#1a2340"/>
      <stop offset="100%" stop-color="#0a0f1e"/>
    </radialGradient>
    <linearGradient id="cream" x1="0" y1="0" x2="0" y2="1">
      <stop offset="0%" stop-color="#f5eed6"/>
      <stop offset="100%" stop-color="#e4d8b2"/>
    </linearGradient>
  </defs>

  <!-- dark rounded tile -->
  <rect width="64" height="64" rx="15" fill="url(#tile)"/>

  <!-- verb-card token -->
  <g>
    <!-- soft drop -->
    <rect x="16" y="13" width="32" height="40" rx="6" fill="#000000" opacity="0.28"/>
    <rect x="16" y="11" width="32" height="40" rx="6" fill="url(#cream)" stroke="#c7b888" stroke-width="0.8"/>
    <!-- brass top bar -->
    <rect x="22" y="17" width="20" height="3.6" rx="1.8" fill="#d4af6a"/>
    <!-- Effort glyph — geometry synced from src/assets/glyphs/effort.svg by
         scripts/build-brand.mjs. Tweak the glyph there, then run `pnpm brand:sync`. -->
    <g id="gl-effort" transform="translate(20.1,21.5) scale(0.99)"
       fill="none" stroke="#9a7b3a" stroke-width="1.8" stroke-linejoin="round">
      <path
      d="M 9.9608201,12.75 V 7.1499999 a 1.3,1.3 0 0 1 2.5999999,0 V 11.75 m 0,0 V 5.9499999 a 1.3,1.3 0 0 1 2.6,0 V 11.75 m 0,0.4 V 7.3499999 a 1.3,1.3 0 0 1 2.6,0 V 13.75 c 0,3.2 -2,5.6 -5,5.6 -2,0 -3.1999999,-0.8 -4.3999999,-2.4 l -1.9,-2.8 a 1.3038405,1.3038405 0 0 1 2.2,-1.4 l 1.3,2"
      id="path1" />
    </g>
  </g>
</svg>
