<svg width="64" height="64" viewBox="0 0 64 64" xmlns="http://www.w3.org/2000/svg">
  <defs>
    <radialGradient id="tile" cx="34%" cy="28%" r="95%">
      <stop offset="0%" stop-color="#1a2340"/>
      <stop offset="100%" stop-color="#0a0f1e"/>
    </radialGradient>
    <linearGradient id="cream" x1="0" y1="0" x2="0" y2="1">
      <stop offset="0%" stop-color="#f5eed6"/>
      <stop offset="100%" stop-color="#e4d8b2"/>
    </linearGradient>
  </defs>

  <!-- dark rounded tile -->
  <rect width="64" height="64" rx="15" fill="url(#tile)"/>

  <!-- verb-card token -->
  <g>
    <!-- soft drop -->
    <rect x="16" y="13" width="32" height="40" rx="6" fill="#000000" opacity="0.28"/>
    <rect x="16" y="11" width="32" height="40" rx="6" fill="url(#cream)" stroke="#c7b888" stroke-width="0.8"/>
    <!-- brass top bar -->
    <rect x="22" y="17" width="20" height="3.6" rx="1.8" fill="#d4af6a"/>
    <!-- Effort hand glyph (from src/lib/catalogue.ts), centred in the card -->
    <g transform="translate(20.1,21.5) scale(0.99)"
       fill="none" stroke="#9a7b3a" stroke-width="1.8" stroke-linejoin="round">
      <path d="M8.5 12V6.4a1.3 1.3 0 012.6 0V11M11.1 11V5.2a1.3 1.3 0 012.6 0V11M13.7 11.4V6.6a1.3 1.3 0 012.6 0V13c0 3.2-2 5.6-5 5.6-2 0-3.2-.8-4.4-2.4L5 13.4a1.3 1.3 0 012.2-1.4L8.5 14"/>
      <path d="M17.4 4.4c.9.7.9 2 0 2.7" stroke-linecap="round"/>
    </g>
  </g>
</svg>
